<?xml version="1.0" standalone="no"?>
<!DOCTYPE svg PUBLIC "-//W3C//DTD SVG 20010904//EN"
 "http://www.w3.org/TR/2001/REC-SVG-20010904/DTD/svg10.dtd">
<svg version="1.0" xmlns="http://www.w3.org/2000/svg"
 width="627.000000pt" height="627.000000pt" viewBox="0 0 627.000000 627.000000"
 preserveAspectRatio="xMidYMid meet">
<metadata>
Created by potrace 1.14, written by Peter Selinger 2001-2017
</metadata>
<g transform="translate(0.000000,627.000000) scale(0.100000,-0.100000)"
fill="#000000" stroke="none">
<path d="M0 3135 l0 -3135 599 0 c461 1 601 4 604 13 4 9 6 9 6 0 1 -16 351
-19 351 -2 0 7 -8 17 -17 24 -16 12 -14 12 10 8 18 -4 27 -12 27 -24 0 -18 7
-19 80 -17 47 1 80 7 80 13 0 5 4 4 8 -3 11 -16 250 -14 271 2 10 8 15 8 18
-1 3 -8 24 -13 58 -13 41 0 54 4 60 18 6 16 7 16 19 1 10 -14 33 -17 141 -18
105 -1 127 2 114 12 -8 6 -31 34 -50 61 -18 27 -45 65 -60 85 -14 20 -28 43
-32 51 -4 8 -15 27 -25 41 -76 115 -144 248 -164 319 -35 129 -42 202 -53 579
l-5 185 27 -25 c15 -13 33 -29 40 -36 7 -6 13 -16 13 -21 0 -6 6 -12 13 -15 9
-3 9 -7 -2 -20 -11 -14 -11 -17 0 -17 8 0 28 -11 44 -24 24 -20 28 -27 18 -37
-19 -19 -16 -28 7 -22 13 4 20 0 20 -9 0 -9 16 -32 35 -52 19 -21 35 -43 35
-51 0 -7 11 -20 25 -29 14 -9 25 -22 23 -29 -1 -7 12 -27 29 -45 20 -20 29
-39 26 -51 -3 -14 2 -20 22 -25 15 -4 35 -14 43 -23 15 -14 14 -15 -7 -8 -32
10 -19 -11 23 -36 17 -10 27 -19 23 -19 -4 0 -3 -9 3 -20 7 -13 21 -20 40 -20
30 0 62 -14 88 -38 7 -6 10 -12 6 -12 -4 0 5 -9 19 -20 14 -11 28 -20 31 -20
13 0 65 -43 61 -51 -9 -13 27 -20 42 -7 11 9 16 9 24 -3 6 -10 9 -10 9 -1 0
16 15 15 33 -3 8 -8 17 -12 20 -9 3 3 15 0 27 -6 15 -8 35 -9 64 -2 40 8 43 8
38 -10 -4 -18 -1 -19 44 -13 27 4 67 11 88 15 23 5 47 5 57 0 9 -5 19 -6 23
-3 3 3 6 -1 6 -10 0 -10 -6 -17 -14 -17 -7 0 -20 -8 -27 -17 -13 -15 -12 -16
9 -11 23 6 30 -6 11 -18 -6 -3 -9 -19 -5 -35 3 -17 1 -29 -7 -32 -7 -2 5 -5
26 -5 20 0 37 4 37 10 0 5 6 8 12 6 7 -3 21 4 32 14 23 21 40 24 32 6 -3 -7
-9 -20 -12 -29 -3 -9 -17 -22 -30 -28 -13 -6 -24 -15 -24 -21 0 -6 -4 -9 -9
-6 -4 3 -19 -3 -31 -14 -22 -19 -22 -20 -3 -20 29 0 83 20 83 31 0 5 6 9 14 9
18 0 29 -42 13 -52 -8 -5 -5 -8 8 -8 17 0 18 -2 5 -10 -13 -9 -12 -12 4 -25
11 -8 26 -15 33 -15 16 0 17 -16 1 -26 -8 -5 -5 -11 7 -20 18 -13 18 -14 0
-34 -25 -28 -1 -26 27 2 21 21 21 23 5 26 -23 5 -17 26 9 30 10 2 29 13 40 24
17 15 23 16 27 5 3 -8 -7 -21 -26 -33 -24 -14 -28 -19 -15 -22 30 -6 58 17 58
48 0 41 18 47 31 11 10 -29 29 -43 29 -21 0 6 -5 10 -11 10 -8 0 -7 5 2 16 11
14 10 18 -5 29 -23 18 -14 32 26 41 18 3 37 12 43 19 8 10 14 9 29 -6 11 -10
14 -19 8 -19 -21 0 -13 -28 15 -48 l27 -19 -25 -25 c-49 -50 -52 -56 -22 -50
l27 5 -32 -31 c-20 -19 -29 -37 -26 -46 4 -9 0 -18 -10 -22 -8 -3 -22 -19 -30
-35 l-14 -28 159 0 c151 0 159 1 159 20 0 10 5 19 11 19 6 0 9 -9 6 -20 -7
-25 23 -27 59 -4 22 15 24 15 18 0 -6 -15 86 -16 1140 -16 l1146 0 0 3135 0
3135 -3135 0 -3135 0 0 -3135z m3494 2389 c3 -8 2 -12 -4 -9 -6 3 -10 10 -10
16 0 14 7 11 14 -7z m181 -49 c17 -13 25 -24 18 -25 -7 0 -25 11 -40 25 -36
32 -17 32 22 0z m-261 -27 c51 -59 45 -76 -9 -24 -43 42 -56 66 -36 66 5 0 26
-19 45 -42z m-179 22 c8 -13 -5 -13 -25 0 -13 8 -13 10 2 10 9 0 20 -4 23 -10z
m675 -66 c0 -2 -9 0 -20 6 -11 6 -20 13 -20 16 0 2 9 0 20 -6 11 -6 20 -13 20
-16z m-1146 7 c4 -5 -3 -7 -14 -4 -23 6 -26 13 -6 13 8 0 17 -4 20 -9z m806
-60 c0 -21 -16 -2 -24 29 -7 24 -6 24 8 6 9 -11 16 -27 16 -35z m-182 14 c-3
-3 -9 2 -12 12 -6 14 -5 15 5 6 7 -7 10 -15 7 -18z m92 -16 c0 -6 -4 -7 -10
-4 -5 3 -10 11 -10 16 0 6 5 7 10 4 6 -3 10 -11 10 -16z m-900 -9 c8 -5 11
-12 8 -16 -4 -3 -14 1 -23 10 -18 17 -9 21 15 6z m483 -6 c18 -10 38 -25 45
-35 7 -11 19 -19 26 -19 8 0 19 -7 26 -15 14 -17 35 -21 25 -5 -12 19 14 10
62 -22 67 -45 157 -138 183 -188 32 -63 18 -71 -19 -11 -18 29 -34 51 -36 49
-2 -2 5 -30 16 -62 10 -33 18 -73 18 -90 -2 -27 -2 -28 -6 -6 -12 73 -48 171
-70 192 -17 16 -24 18 -23 8 5 -35 1 -41 -21 -30 -29 16 -32 9 -16 -39 8 -22
11 -41 6 -41 -5 0 -9 6 -9 14 0 22 -51 71 -60 57 -5 -8 -9 -3 -13 16 -3 15
-26 49 -51 76 -44 45 -47 47 -103 47 -84 0 -91 12 -21 34 68 22 63 33 -22 43
-27 3 -50 10 -50 15 0 6 -7 8 -15 4 -8 -3 -15 -1 -15 3 0 25 98 28 143 5z
m-160 -11 c-7 -2 -19 -2 -25 0 -7 3 -2 5 12 5 14 0 19 -2 13 -5z m702 -51 c-3
-8 0 -21 6 -29 15 -18 13 -99 -4 -123 -10 -15 -12 -9 -12 35 0 29 3 51 8 48 9
-5 9 10 1 31 -3 9 -10 13 -15 10 -5 -3 -9 4 -9 15 0 11 4 22 9 25 5 3 7 16 5
29 -4 20 -4 20 6 -2 6 -14 8 -31 5 -39z m-1175 -22 c0 -5 -8 -10 -17 -10 -15
0 -16 2 -3 10 19 12 20 12 20 0z m260 -96 c0 5 16 -12 35 -36 20 -23 46 -54
59 -68 18 -19 25 -41 30 -93 3 -37 15 -84 26 -105 11 -20 20 -49 20 -63 0 -14
9 -38 20 -52 11 -14 20 -34 20 -45 0 -12 4 -24 10 -27 6 -3 7 1 4 9 -14 36 8
12 31 -34 21 -41 23 -53 13 -64 -10 -11 -18 -5 -46 30 -18 24 -36 44 -39 44
-4 0 -2 -5 5 -12 7 -7 12 -17 12 -22 -1 -6 -10 0 -20 13 -24 28 -26 20 -4 -14
20 -31 1 -33 -20 -3 -12 16 -16 18 -16 7 0 -9 14 -28 31 -44 18 -15 27 -30 21
-34 -12 -7 3 -51 18 -51 5 0 10 -7 10 -16 0 -24 -61 54 -89 114 -14 30 -28 48
-31 41 -4 -6 -9 0 -12 15 -3 14 -2 26 2 26 4 0 3 19 -2 43 -20 89 -20 97 -9
97 6 0 11 -9 11 -20 0 -11 5 -20 10 -20 6 0 4 15 -5 36 -9 22 -15 68 -15 113
0 68 -3 79 -25 100 -14 13 -25 18 -25 13 0 -6 5 -14 10 -17 6 -3 10 -12 10
-18 -1 -7 -9 -2 -19 11 -19 22 -58 32 -46 11 4 -6 -12 0 -35 13 -92 50 -127
66 -153 70 -35 4 -36 -15 0 -27 34 -12 85 -46 79 -52 -2 -3 -14 1 -27 7 -12 7
-49 12 -81 11 -56 -1 -98 11 -98 27 0 4 10 13 22 21 19 12 23 11 38 -9 l18
-23 0 26 c0 15 -4 27 -9 27 -5 0 -9 7 -9 16 0 16 2 16 48 -3 6 -3 12 -1 12 5
0 6 -6 12 -12 15 -7 3 6 4 28 2 23 -1 47 -6 53 -9 6 -4 21 -9 32 -11 12 -3 31
-12 42 -22 19 -17 19 -17 13 3 -4 13 -1 27 7 36 7 7 11 20 9 28 -4 11 1 10 17
-4 11 -11 21 -16 21 -12z m101 12 c16 10 37 -15 32 -37 -6 -20 -6 -20 -29 2
-13 12 -24 30 -23 38 0 11 2 12 6 3 2 -6 9 -9 14 -6z m896 -38 c-2 -13 -4 -5
-4 17 -1 22 1 32 4 23 2 -10 2 -28 0 -40z m-47 1 c0 -11 -4 -18 -10 -14 -5 3
-7 12 -3 20 7 21 13 19 13 -6z m-611 -79 c4 0 23 -35 41 -77 18 -43 38 -87 46
-98 21 -30 16 -43 -6 -15 l-19 25 6 -25 c5 -22 3 -21 -21 10 -31 40 -106 186
-106 205 0 24 25 23 38 -1 7 -13 16 -24 21 -24z m724 -5 c9 -18 8 -18 -6 -7
-29 24 -40 3 -17 -34 24 -41 27 -58 4 -26 -20 29 -34 28 -34 -2 0 -13 -6 -29
-14 -35 -20 -17 -27 -51 -10 -51 8 0 14 -9 14 -20 0 -11 -5 -20 -11 -20 -6 0
-8 -8 -5 -18 4 -11 -2 -22 -14 -30 -19 -11 -20 -10 -20 25 -1 36 -2 37 -15 19
-8 -11 -15 -25 -15 -30 0 -6 5 -4 10 4 8 13 10 12 10 -3 0 -24 -28 -77 -40
-77 -6 0 -9 -3 -7 -7 1 -5 -2 -9 -7 -10 -16 -3 -26 -27 -26 -62 0 -19 -3 -31
-7 -28 -3 4 -15 -10 -25 -30 l-18 -38 4 40 4 40 -15 -35 c-23 -52 -27 -20 -5
36 34 86 35 91 22 74 -10 -13 -11 -12 -5 5 4 11 9 35 12 53 4 25 10 32 22 27
8 -3 12 -3 9 0 -4 4 9 43 28 87 19 44 34 86 34 93 0 8 11 22 25 33 16 13 23
26 19 36 -3 9 -1 16 5 16 11 0 15 -13 12 -38 -2 -10 5 -9 23 4 28 17 32 29 16
39 -5 3 -10 11 -10 17 0 14 38 -20 53 -47z m147 -4 c0 -44 11 -75 21 -59 6 8
7 -1 3 -22 -4 -28 -3 -32 6 -20 9 12 11 5 7 -32 -2 -26 -1 -45 4 -42 5 3 9 -3
10 -13 0 -16 1 -16 8 2 6 14 10 3 13 -40 3 -33 9 -69 13 -80 l7 -20 -14 20
c-8 11 -18 33 -22 49 -4 15 -17 41 -29 58 -16 22 -19 31 -9 37 10 6 10 11 -3
21 -17 14 -15 20 -21 -115 -3 -87 -36 -297 -45 -284 -3 6 -2 36 3 67 5 31 7
66 4 78 -3 12 -2 35 3 50 16 50 21 94 11 94 -6 0 -10 -6 -10 -14 0 -8 -4 -17
-9 -20 -5 -4 -9 14 -9 39 1 29 -5 52 -15 63 -10 10 -17 21 -17 24 0 10 30 4
32 -6 0 -6 4 9 8 34 l7 45 2 -40 c1 -44 21 -87 21 -48 0 12 5 33 11 46 9 19 7
41 -5 95 -20 87 -20 87 -1 72 8 -7 15 -24 15 -39z m-1753 3 c-3 -3 -12 -4 -19
-1 -8 3 -5 6 6 6 11 1 17 -2 13 -5z m1883 -37 c0 -10 7 -20 15 -23 8 -4 15
-13 15 -22 0 -11 -5 -9 -20 8 -11 13 -20 29 -20 36 0 7 -3 21 -6 31 -5 15 -4
15 5 3 6 -8 11 -23 11 -33z m-850 -69 c0 -37 -4 -57 -10 -53 -5 3 -10 1 -10
-4 0 -6 -5 -11 -10 -11 -7 0 -10 31 -8 85 3 84 3 85 21 64 12 -15 17 -39 17
-81z m-760 52 c31 -12 50 -16 50 -9 0 6 18 -7 40 -30 50 -51 51 -59 3 -26 -37
25 -70 34 -59 16 12 -19 -40 3 -66 27 -25 23 -36 42 -23 42 2 0 27 -9 55 -20z
m910 -45 c0 -5 -5 -3 -10 5 -5 8 -10 20 -10 25 0 6 5 3 10 -5 5 -8 10 -19 10
-25z m-469 -47 c18 -48 24 -57 30 -42 7 17 8 17 8 -4 1 -13 5 -21 9 -18 5 3
17 -18 27 -47 10 -29 22 -57 27 -64 6 -7 7 -16 4 -21 -3 -5 3 -17 14 -27 11
-10 20 -28 20 -39 0 -15 -9 -7 -29 28 -16 26 -33 51 -38 55 -5 3 -20 29 -34
56 -14 28 -33 63 -43 78 -20 30 -38 107 -26 107 4 0 18 -28 31 -62z m966 20
c-3 -8 -6 -5 -6 6 -1 11 2 17 5 13 3 -3 4 -12 1 -19z m145 -13 c3 -13 1 -22
-3 -19 -9 5 -13 44 -5 44 2 0 6 -11 8 -25z m-483 -59 c-9 -8 -10 -7 -5 7 3 10
7 24 7 30 1 7 3 4 6 -7 3 -10 -1 -23 -8 -30z m-1199 -22 c0 -15 -31 0 -45 23
l-18 26 32 -22 c17 -12 31 -24 31 -27z m1127 24 c-3 -8 -6 -5 -6 6 -1 11 2 17
5 13 3 -3 4 -12 1 -19z m627 -138 c-3 -58 -9 -108 -13 -113 -4 -4 -8 41 -9
100 -2 59 -8 113 -14 120 -7 9 -7 13 1 13 6 0 10 3 10 8 -5 28 5 32 17 7 10
-22 12 -56 8 -135z m-287 118 c-3 -7 -5 -2 -5 12 0 14 2 19 5 13 2 -7 2 -19 0
-25z m-258 -30 c-1 -58 -15 -75 -15 -19 0 28 3 51 8 51 4 0 8 -15 7 -32z
m-1214 2 c3 -5 1 -10 -4 -10 -6 0 -11 5 -11 10 0 6 2 10 4 10 3 0 8 -4 11 -10z
m1641 -46 c-4 -20 -10 -34 -12 -31 -3 3 -2 21 2 41 3 21 9 35 11 32 3 -3 2
-21 -1 -42z m-1637 -78 c35 -32 90 -66 75 -46 -6 8 -14 23 -17 33 -6 15 1 14
43 -9 28 -15 46 -30 40 -34 -14 -9 0 -20 64 -50 28 -13 44 -26 37 -28 -11 -4
-11 -6 0 -14 14 -10 2 -7 -38 9 -11 4 -14 3 -8 -6 11 -19 -27 3 -46 25 -8 9
-29 23 -48 31 -28 12 -35 12 -42 1 -6 -9 -9 -8 -9 7 0 17 -31 55 -44 55 -14 0
29 -135 53 -165 9 -11 1 -7 -16 9 -18 16 -30 32 -28 36 10 16 -17 70 -35 70
-21 0 -33 36 -19 62 5 10 7 23 4 28 -11 18 9 10 34 -14z m1466 -43 c-9 -37
-18 -20 -9 19 4 18 9 27 11 20 3 -7 2 -24 -2 -39z m-1525 3 c0 -6 12 -29 27
-51 18 -26 26 -50 25 -72 -6 -78 105 -214 213 -263 37 -17 68 -23 118 -23 37
0 67 -4 67 -9 0 -6 22 -8 50 -6 28 1 50 1 50 -2 0 -3 -17 -13 -37 -23 l-38
-17 37 2 c20 1 40 -1 44 -5 4 -4 0 -7 -9 -7 -10 0 -17 -5 -17 -10 0 -6 6 -10
13 -9 6 2 27 -1 45 -5 22 -5 38 -4 45 3 15 15 27 14 21 -3 -4 -11 3 -13 38 -9
24 3 51 10 61 15 10 5 17 5 17 -1 0 -6 12 -10 28 -10 15 0 54 -2 87 -4 33 -2
66 1 72 6 8 6 24 5 43 -1 18 -7 30 -7 30 -1 0 5 8 9 18 9 9 0 31 9 49 20 23
14 46 19 82 16 28 -1 48 1 45 6 -3 4 1 8 9 8 8 0 18 -7 21 -16 4 -9 11 -12 18
-7 19 11 50 4 74 -18 11 -10 35 -21 53 -23 33 -4 54 -22 45 -38 -3 -4 1 -5 9
-2 8 3 20 -2 27 -11 11 -13 10 -14 -5 -9 -13 5 -16 4 -11 -4 4 -7 14 -12 22
-12 15 0 76 -39 82 -53 2 -4 8 -5 13 -1 5 3 9 -4 9 -15 0 -26 17 -28 23 -3 3
12 5 9 6 -8 6 -72 10 -93 21 -103 10 -9 11 -9 6 1 -5 7 -1 12 9 12 9 0 16 -7
14 -17 -3 -31 1 -38 12 -23 8 11 12 12 16 2 4 -9 12 -8 34 5 33 19 35 18 45
-21 6 -26 5 -29 -15 -23 -27 7 -37 -8 -14 -23 17 -11 17 -11 0 -6 -59 19 -70
19 -64 2 9 -21 15 -43 10 -33 -10 17 -18 5 -17 -26 3 -61 3 -61 19 -47 9 7 19
10 23 6 4 -4 -2 -14 -12 -22 -16 -11 -17 -17 -8 -26 9 -9 12 -8 12 5 0 9 2 17
4 17 2 0 11 2 19 6 20 7 17 -54 -3 -66 -13 -8 -13 -10 2 -10 9 0 18 -10 20
-22 2 -13 9 -22 16 -20 15 3 15 5 -3 -65 -9 -35 -11 -59 -6 -61 6 -2 7 -12 0
-28 -20 -55 -1 -125 20 -72 l10 23 2 -25 c1 -14 3 -31 3 -39 1 -8 8 -17 16
-20 8 -3 15 -13 15 -21 0 -8 6 -14 13 -12 13 2 17 -24 4 -32 -4 -2 -18 2 -32
9 -18 10 -30 10 -48 2 -20 -9 -26 -8 -37 6 -7 9 -18 17 -24 17 -7 0 -19 7 -28
16 -9 9 -22 12 -32 8 -28 -11 -71 -14 -71 -4 0 6 -5 10 -11 10 -5 0 -7 -5 -3
-12 5 -8 -2 -9 -24 -5 -17 4 -34 3 -36 -2 -3 -5 -22 -8 -43 -8 -48 0 -133 -49
-151 -86 -14 -28 -36 -38 -26 -12 4 9 0 15 -7 15 -9 1 -7 6 5 15 25 19 7 20
-19 1 -27 -18 -95 -27 -96 -12 0 6 -5 -2 -11 -18 -8 -21 -13 -25 -19 -15 -6
10 -9 8 -9 -8 0 -17 -6 -23 -22 -24 -13 0 -17 -3 -10 -6 6 -2 12 -12 12 -20 0
-12 -3 -13 -14 -3 -12 9 -16 5 -22 -24 -3 -20 -10 -36 -16 -36 -5 0 -6 -5 -2
-11 10 -17 -15 -27 -56 -22 -21 3 -40 1 -43 -4 -8 -13 13 -103 24 -103 6 0 9
-19 8 -42 -1 -26 5 -57 16 -78 10 -19 18 -51 19 -72 0 -28 5 -38 20 -42 15 -4
17 -8 8 -19 -7 -8 -9 -17 -6 -20 4 -3 -1 -13 -10 -22 -9 -9 -16 -25 -16 -36 0
-10 -6 -36 -14 -56 -21 -57 -29 -96 -16 -88 5 3 10 -2 10 -13 0 -11 7 -22 15
-26 9 -3 15 -18 15 -38 0 -18 4 -40 9 -47 6 -9 6 -22 -1 -34 -12 -24 3 -36 37
-29 17 3 27 -2 35 -18 8 -15 18 -20 31 -17 13 4 28 -6 50 -34 20 -25 26 -39
17 -39 -8 0 -24 -12 -37 -26 -28 -32 -46 -26 -45 14 2 36 -30 52 -46 22 -5
-10 -21 -21 -35 -24 -14 -4 -23 -11 -20 -16 3 -5 1 -11 -5 -15 -5 -3 -16 -20
-25 -38 -20 -41 -31 -54 -78 -94 -37 -32 -37 -33 -12 -33 15 0 25 -6 25 -14 0
-8 10 -16 23 -20 28 -7 108 -75 89 -76 -17 0 -7 -58 13 -79 10 -10 11 -21 3
-42 -6 -19 -6 -34 1 -46 6 -10 11 -13 11 -6 0 7 6 10 14 7 10 -4 13 4 11 33
l-3 38 13 -30 13 -30 4 32 c2 24 6 30 16 24 11 -7 10 -19 -3 -67 -17 -58 -39
-94 -51 -82 -3 4 1 17 10 30 15 23 14 23 -22 25 -20 1 -31 -1 -24 -4 21 -8 13
-23 -12 -23 -17 0 -46 -21 -91 -66 -65 -64 -68 -65 -108 -59 -48 7 -32 -10 19
-20 32 -6 229 -17 282 -16 22 1 32 -3 32 -13 0 -27 -12 -46 -29 -46 -23 0 -41
-20 -41 -45 0 -18 6 -21 35 -21 19 1 35 4 35 8 0 3 22 14 50 23 46 15 51 15
66 0 13 -13 14 -16 3 -15 -28 4 -39 0 -39 -15 0 -8 -4 -15 -10 -15 -5 0 -10
-7 -10 -16 0 -12 -7 -15 -30 -12 -20 3 -30 0 -30 -9 0 -17 -17 -17 -23 0 -3 6
-6 2 -6 -10 -1 -16 -6 -21 -16 -17 -9 4 -15 0 -15 -7 0 -11 -3 -11 -10 1 -8
12 -10 10 -10 -10 1 -14 7 -34 15 -44 11 -15 15 -16 15 -5 0 8 9 15 20 15 17
0 20 -5 15 -26 -5 -21 -2 -26 15 -26 12 0 19 5 16 13 -3 7 1 10 8 7 8 -3 17
-1 21 5 9 16 25 13 25 -4 0 -21 16 -19 25 3 6 15 8 14 16 -7 6 -15 14 -21 25
-17 9 3 19 6 24 6 5 0 10 7 12 17 2 12 11 5 31 -23 30 -45 33 -56 13 -48 -11
4 -13 0 -9 -17 4 -15 3 -20 -5 -15 -7 4 -12 2 -12 -5 0 -6 -8 -1 -18 12 -11
12 -22 18 -25 12 -3 -5 5 -22 19 -38 15 -17 24 -41 24 -60 0 -18 3 -48 6 -66
6 -32 6 -33 -9 -14 -9 11 -17 32 -17 48 0 19 -5 27 -18 27 -10 0 -22 3 -26 7
-3 4 -13 8 -20 9 -17 2 -19 -55 -2 -62 11 -4 10 -13 -5 -42 -10 -20 -23 -52
-30 -69 -12 -34 -35 -47 -25 -15 7 22 -21 95 -33 87 -5 -3 -11 0 -13 6 -2 7
-4 -4 -5 -23 -1 -20 -7 -46 -14 -59 -13 -24 -14 -24 -17 -2 -4 28 -32 40 -32
14 0 -11 -5 -21 -12 -23 -6 -2 -17 -20 -24 -39 l-12 -34 -1 48 c-1 35 -5 47
-16 47 -8 0 -15 -7 -15 -15 0 -29 -19 -15 -22 18 l-4 32 -8 -30 c-5 -16 -14
-37 -22 -45 -7 -8 -16 -27 -19 -42 -11 -42 -26 -33 -19 11 4 24 2 41 -5 45 -6
4 -11 0 -11 -11 -1 -17 -1 -17 -11 0 -5 9 -15 17 -21 17 -6 0 -9 -3 -5 -6 6
-7 -24 -44 -36 -44 -4 0 -6 4 -3 8 3 5 -4 16 -14 25 -19 16 -20 15 -34 -11 -9
-15 -15 -22 -16 -16 0 7 -7 15 -16 18 -8 3 -12 2 -9 -4 6 -10 -21 -70 -32 -70
-3 0 -3 15 0 33 3 17 3 26 0 19 -2 -6 -9 -10 -14 -6 -5 3 -9 -2 -9 -10 0 -9
-4 -16 -9 -16 -5 0 -11 -13 -14 -30 -6 -27 -27 -43 -27 -20 0 6 5 10 10 10 6
0 10 5 10 10 0 7 -6 7 -19 0 -31 -16 -36 -12 -14 13 29 32 35 56 19 72 -12 12
-15 11 -20 -8 -3 -12 -12 -31 -21 -42 -9 -11 -14 -14 -10 -8 3 7 2 20 -3 30
-9 14 -10 14 -16 -5 -13 -40 -31 -24 -29 26 1 6 -3 12 -8 12 -5 0 -9 -9 -9
-20 0 -11 -5 -20 -11 -20 -5 0 -9 10 -7 21 2 12 -5 26 -14 33 -14 8 -23 5 -49
-19 l-32 -30 7 28 c4 19 3 26 -4 22 -5 -3 -10 1 -10 9 0 9 5 16 10 16 6 0 10
4 10 10 0 5 -3 9 -7 9 -23 -4 -33 4 -33 25 0 26 -15 28 -70 12 l-25 -8 27 19
c21 15 24 21 15 33 -7 9 -21 14 -32 12 -16 -2 -17 -1 -5 7 12 8 11 11 -8 18
-13 5 -23 12 -23 16 0 4 -2 13 -5 22 -5 13 -10 13 -42 0 l-37 -15 24 20 c13
11 18 20 11 20 -7 0 -10 7 -6 16 5 12 2 15 -11 10 -14 -6 -14 -4 3 15 14 16
15 20 4 19 -8 -1 -23 -2 -34 -1 -16 1 -16 3 5 20 l24 20 -23 -6 c-18 -4 -21
-2 -16 11 3 9 10 16 15 16 5 0 9 5 9 12 0 6 -10 2 -23 -10 -13 -12 -30 -22
-38 -21 -10 0 -10 2 -1 6 14 6 16 33 2 33 -5 0 -10 15 -10 34 0 22 -6 36 -16
40 -9 3 -13 13 -10 23 7 24 -19 57 -36 47 -10 -6 -9 -3 1 10 8 9 20 15 27 12
8 -3 11 0 8 8 -3 7 1 20 9 27 21 22 28 57 9 55 -17 -3 -32 -34 -25 -53 3 -7
-8 -18 -24 -25 -15 -7 -31 -17 -35 -23 -9 -12 -14 -7 -22 25 -6 19 -5 21 3 10
9 -12 11 -10 11 13 0 15 5 27 10 27 6 0 10 5 10 11 0 6 -5 7 -12 2 -23 -14
-39 -12 -36 5 2 9 11 16 20 14 19 -3 33 14 18 23 -5 3 -10 2 -10 -3 0 -6 -9
-8 -20 -5 -19 5 -25 20 -21 51 1 6 -6 12 -15 12 -10 0 -15 -3 -11 -6 3 -3 0
-12 -6 -19 -9 -10 -15 -10 -26 -1 -12 9 -13 6 -9 -17 3 -15 2 -27 -2 -27 -11
0 -21 73 -11 83 6 6 1 24 -10 43 -22 40 -24 72 -6 107 10 19 17 23 30 15 22
-12 24 14 2 32 -8 7 -12 16 -9 21 3 5 3 9 0 9 -3 0 -12 -12 -20 -27 -14 -26
-15 -27 -16 -5 0 24 -20 31 -20 7 0 -17 -16 -20 -26 -4 -3 6 -7 30 -7 53 0 23
-6 48 -14 54 -10 10 -13 10 -13 -2 0 -8 -5 -18 -11 -22 -7 -4 -9 0 -5 14 4 11
4 32 0 46 -5 22 -9 24 -21 15 -12 -10 -14 -8 -11 12 2 13 6 29 9 34 3 6 3 21
-2 35 -4 16 -7 19 -8 8 -1 -10 -5 -18 -11 -18 -12 0 -13 37 -2 44 5 3 9 23 10
46 1 31 -2 40 -14 40 -13 0 -15 7 -10 30 3 19 1 30 -5 30 -6 0 -8 7 -5 16 3 8
-3 35 -14 59 -11 24 -20 49 -20 54 0 6 -4 11 -9 11 -5 0 -9 19 -9 43 0 23 -7
71 -15 107 -24 97 -27 124 -31 260 -7 223 22 555 55 636 7 16 11 34 10 40 0 6
6 17 14 24 8 7 15 21 15 32 0 17 -3 18 -15 8 -13 -11 -13 -8 0 24 8 20 11 36
7 36 -5 0 -7 14 -4 30 2 17 0 30 -6 30 -18 0 -10 44 13 70 22 24 45 63 45 74
0 3 -6 6 -14 6 -21 0 -12 43 26 117 35 71 161 209 179 197 8 -4 9 -3 5 4 -4 8
4 16 21 22 15 6 43 27 61 48 26 30 34 34 41 23 8 -12 12 -12 25 -2 9 8 16 18
16 24 0 17 51 57 72 57 10 0 18 7 18 15 0 10 10 15 29 15 16 0 37 3 46 7 16 5
15 8 -5 23 -14 11 -20 22 -15 30 6 9 9 9 15 0 13 -21 120 -39 120 -20 0 6 -8
10 -18 10 -10 0 -26 6 -37 13 -32 20 -91 38 -108 31 -8 -3 -30 2 -49 11 l-33
16 25 -20 25 -20 -45 15 c-24 9 -63 19 -85 24 -22 5 -52 12 -67 16 -21 5 -28
3 -28 -9 0 -8 -7 -20 -15 -27 -8 -7 -15 -17 -15 -23 0 -5 9 2 21 17 19 24 49
36 49 19 0 -23 -44 -75 -75 -90 -19 -9 -35 -20 -35 -25 0 -4 -9 -8 -21 -8 -13
0 -18 4 -13 13 5 8 2 8 -9 -2 -11 -8 -17 -9 -17 -3 0 6 -7 9 -15 6 -28 -11 -8
33 32 69 39 36 41 57 4 38 -72 -37 -71 -37 -71 -17 0 13 28 29 55 31 28 2 86
28 82 38 -7 22 -45 17 -61 -8 -14 -21 -20 -23 -36 -15 -10 5 -27 7 -37 4 -10
-3 -1 5 19 19 21 13 36 26 33 29 -3 3 13 12 35 21 21 8 39 12 38 9 -3 -17 16
-42 31 -42 9 0 22 -5 29 -12 20 -20 25 -1 5 22 -20 25 -99 109 -96 102 6 -12
-64 -52 -91 -52 l-31 1 25 14 c14 8 19 14 12 15 -7 0 -10 5 -6 11 3 6 14 9 23
7 9 -3 25 4 35 14 11 10 15 18 9 18 -6 0 -14 12 -17 26 -5 19 -12 25 -24 22
-12 -4 -18 1 -19 13 -2 28 24 30 42 3 9 -14 20 -22 24 -20 4 3 25 -15 46 -39
21 -24 42 -42 46 -39 11 6 50 -52 41 -61 -4 -5 -1 -5 5 -1 7 4 24 -4 40 -19
16 -14 48 -35 73 -46 25 -11 53 -25 62 -30 37 -19 37 -8 1 24 -53 45 -63 55
-63 61 0 4 -13 24 -29 46 -15 21 -33 53 -40 70 -6 16 -16 44 -22 60 -6 17 -18
30 -25 30 -19 0 -17 -23 5 -51 24 -32 17 -57 -10 -33 -19 17 -20 17 -13 -2 7
-19 7 -19 -14 0 -12 11 -20 21 -18 23 2 3 -2 20 -10 39 -14 34 -10 84 7 84 4
0 20 -12 35 -27 28 -29 28 -29 8 35 -5 18 -3 21 10 16 9 -3 16 -11 16 -18z
m-321 -7 c-16 -10 -23 -4 -14 10 3 6 11 8 17 5 6 -4 5 -9 -3 -15z m1940 9 c0
-7 -9 -35 -20 -63 l-19 -50 7 45 c3 25 6 53 5 63 0 9 6 17 14 17 8 0 14 -6 13
-12z m-1029 -70 c0 -4 -4 -8 -10 -8 -5 0 -10 4 -10 9 0 5 -3 18 -6 28 -5 16
-4 16 10 -1 9 -11 16 -23 16 -28z m95 6 c20 -48 19 -50 -9 -17 -13 15 -21 33
-19 40 8 19 11 16 28 -23z m-955 -25 c0 -4 -7 -6 -15 -3 -8 4 -15 10 -15 15 0
4 7 6 15 3 8 -4 15 -10 15 -15z m-63 5 c-3 -3 -12 -4 -19 -1 -8 3 -5 6 6 6 11
1 17 -2 13 -5z m519 -36 l29 -31 -37 28 c-39 28 -45 35 -30 35 5 0 21 -14 38
-32z m554 22 c0 -5 -2 -10 -4 -10 -3 0 -8 5 -11 10 -3 6 -1 10 4 10 6 0 11 -4
11 -10z m-1056 -27 c-19 -14 -44 -18 -44 -7 0 13 35 32 48 26 12 -4 11 -8 -4
-19z m226 6 c5 9 10 10 14 2 4 -6 1 -11 -6 -11 -16 -1 40 -44 60 -46 8 -2 20
-8 26 -14 8 -8 6 -9 -9 -4 -15 5 -11 -3 14 -29 56 -60 19 -42 -50 23 -35 33
-66 60 -70 60 -4 0 -10 7 -13 16 -6 14 -4 15 10 4 13 -11 17 -11 24 -1z m1528
-44 c-3 -3 -9 2 -12 12 -6 14 -5 15 5 6 7 -7 10 -15 7 -18z m-1699 -6 c-16
-10 -23 -4 -14 10 3 6 11 8 17 5 6 -4 5 -9 -3 -15z m839 -64 c-3 -3 -9 2 -12
12 -6 14 -5 15 5 6 7 -7 10 -15 7 -18z m-788 -75 c-8 -5 -19 -10 -25 -10 -5 0
-3 5 5 10 8 5 20 10 25 10 6 0 3 -5 -5 -10z m800 -110 c0 -5 -4 -10 -10 -10
-5 0 -10 5 -10 10 0 6 5 10 10 10 6 0 10 -4 10 -10z m-560 -18 c0 -5 -12 -14
-27 -21 l-28 -11 24 20 c26 22 31 24 31 12z m1615 -172 c3 -5 -1 -10 -9 -10
-9 0 -16 5 -16 10 0 6 4 10 9 10 6 0 13 -4 16 -10z m281 -127 c-7 -7 -26 7
-26 19 0 6 6 6 15 -2 9 -7 13 -15 11 -17z m-48 -63 c7 -33 17 -58 21 -55 5 2
11 -10 14 -28 5 -36 -2 -56 -13 -37 -4 7 -9 1 -13 -17 -4 -19 -15 -33 -34 -41
-23 -10 -25 -10 -12 1 32 25 51 142 21 123 -5 -3 -10 22 -11 54 -1 33 2 60 6
60 5 0 15 -27 21 -60z m19 23 c-3 -10 -5 -4 -5 12 0 17 2 24 5 18 2 -7 2 -21
0 -30z m-2220 -5 c-3 -8 -6 -5 -6 6 -1 11 2 17 5 13 3 -3 4 -12 1 -19z m2284
-62 c5 3 9 -3 9 -13 0 -15 2 -16 10 -3 8 13 10 12 10 -3 0 -37 -33 -132 -52
-152 l-20 -20 7 30 c4 17 8 51 9 78 0 26 4 47 9 47 4 0 5 12 2 28 -3 15 -2 21
1 14 3 -6 10 -10 15 -6z m96 -3 c3 -10 13 -27 22 -38 16 -20 15 -20 -5 -2 -11
9 -26 17 -32 17 -7 0 -12 9 -12 20 0 25 18 26 27 3z m-241 -93 c-12 -47 -14
-50 -15 -22 -1 19 -5 31 -11 27 -5 -3 -10 -1 -10 4 0 6 7 11 15 11 8 0 15 8
15 18 0 20 13 39 17 25 1 -4 -4 -33 -11 -63z m224 9 c0 -10 -4 -19 -10 -19 -5
0 -10 12 -10 26 0 14 4 23 10 19 6 -3 10 -15 10 -26z m-270 -14 c0 -8 -7 -15
-16 -15 -14 0 -14 3 -4 15 7 8 14 15 16 15 2 0 4 -7 4 -15z m-153 -682 c82
-20 -26 -49 -162 -44 -128 5 -120 33 13 46 40 4 75 11 78 16 3 5 13 4 22 -1 9
-5 31 -13 49 -17z m-2207 -133 c34 -17 42 -28 55 -74 9 -30 15 -58 14 -62 -1
-5 1 -29 4 -54 4 -25 9 -94 11 -155 4 -106 15 -154 59 -255 28 -66 37 -107 37
-167 0 -34 4 -63 10 -65 5 -1 10 -32 12 -68 3 -62 2 -65 -24 -74 -59 -21 -136
50 -230 209 -53 89 -73 142 -108 285 -50 201 -56 330 -21 423 28 74 103 97
181 57z m1994 -16 c4 -10 1 -14 -6 -12 -15 5 -23 28 -10 28 5 0 13 -7 16 -16z
m-30 -38 c17 -39 26 -46 62 -55 66 -17 79 -14 117 28 29 32 38 37 47 26 8 -10
5 -18 -16 -34 -26 -21 -26 -22 16 -34 10 -3 5 -10 -19 -25 -18 -11 -40 -18
-48 -15 -12 5 -14 1 -9 -15 8 -24 -25 -52 -62 -52 -15 0 -22 -5 -19 -12 2 -8
17 -12 36 -10 22 1 31 -2 31 -13 0 -13 9 -15 40 -12 22 2 41 0 42 -5 2 -4 23
-1 46 9 35 13 48 14 63 5 23 -15 89 -16 89 -2 0 7 6 7 19 1 22 -12 32 -5 24
17 -4 15 -3 15 10 0 8 -10 18 -18 23 -18 5 0 23 -7 39 -15 l30 -15 -28 25 -29
25 32 11 c22 8 28 15 21 22 -16 16 -13 54 4 61 17 6 21 56 5 56 -5 0 -10 -9
-10 -19 0 -11 -4 -23 -10 -26 -6 -3 -10 5 -10 18 0 26 20 40 43 31 7 -2 19
-27 26 -54 7 -28 17 -48 21 -45 4 3 11 -18 15 -47 6 -43 5 -54 -11 -65 -10 -7
-12 -13 -6 -13 17 0 15 -36 -3 -54 -17 -17 -20 -36 -5 -36 18 0 10 -18 -10
-23 -14 -4 -20 -14 -20 -35 0 -16 -7 -35 -15 -42 -8 -7 -15 -21 -15 -31 0 -11
-4 -19 -10 -19 -5 0 -8 -10 -6 -22 2 -13 -1 -29 -6 -35 -6 -7 -8 -20 -4 -28 3
-8 2 -15 -2 -15 -4 0 -15 -13 -24 -29 -12 -22 -13 -31 -5 -35 7 -2 4 -5 -6 -5
-11 -1 -15 -6 -11 -12 3 -6 0 -15 -7 -20 -8 -5 -16 -3 -21 4 -7 11 -8 9 -23
-38 -2 -8 -11 -12 -18 -9 -11 4 -13 -1 -10 -20 4 -17 0 -28 -10 -32 -9 -3 -13
-12 -10 -20 6 -17 -15 -46 -28 -38 -5 3 -7 9 -5 13 3 4 -1 8 -9 8 -8 0 -16 -6
-19 -14 -3 -7 1 -13 9 -13 21 0 19 -9 -7 -30 l-23 -18 27 5 c24 5 26 3 21 -18
-6 -22 -7 -22 -14 -3 -4 10 -8 16 -10 12 -4 -17 -6 -25 -18 -80 -7 -31 -18
-61 -25 -67 -14 -12 -15 -48 -3 -68 5 -9 2 -13 -8 -13 -11 0 -15 -8 -13 -27 3
-23 -1 -28 -19 -26 -19 2 -21 -1 -16 -37 6 -45 -8 -53 -25 -15 -7 14 -20 25
-31 25 -11 0 -23 5 -26 10 -4 6 -10 8 -15 5 -5 -3 -14 4 -20 15 -6 12 -21 20
-35 20 -14 0 -25 5 -25 11 0 6 -7 4 -15 -5 -8 -8 -15 -22 -15 -31 0 -9 -18 4
-45 35 -26 30 -42 56 -39 65 4 9 -3 19 -20 26 -14 7 -27 15 -27 18 -6 27 -5
51 3 51 5 0 4 9 -2 19 -18 34 -11 67 20 98 30 29 30 29 18 91 -6 34 -15 62
-19 62 -13 0 -29 55 -33 111 -2 31 -6 62 -10 68 -5 7 -1 9 8 5 19 -7 21 7 4
25 -11 10 -9 12 6 9 26 -4 33 22 7 29 -19 5 -28 37 -22 76 0 4 -5 7 -11 7 -7
0 -18 12 -25 26 -10 22 -10 24 8 19 15 -5 19 -2 19 14 0 12 5 21 10 21 6 0 10
7 10 16 0 11 5 14 18 9 22 -9 73 -14 90 -8 16 7 15 22 -2 55 -16 31 -7 38 45
38 19 0 29 5 29 15 0 9 -6 12 -15 9 -9 -4 -15 0 -15 8 0 7 -12 18 -27 24 -16
6 -37 27 -48 49 l-19 37 23 19 c17 14 19 19 7 19 -13 0 -36 28 -36 44 0 9 32
36 43 36 7 0 21 -20 31 -44z m1030 -222 c8 -32 6 -35 -23 -27 -14 4 -20 11
-17 20 3 8 6 19 6 24 0 21 28 7 34 -17z m-70 10 c9 -3 16 -11 16 -17 0 -6 -3
-7 -7 -4 -3 4 -12 2 -19 -4 -14 -12 -29 4 -19 21 7 12 8 12 29 4z m-979 -74
c-3 -5 -12 -10 -18 -10 -7 0 -6 4 3 10 19 12 23 12 15 0z m-133 -32 c-6 -6
-16 -7 -22 -3 -9 6 -9 9 1 16 17 10 34 0 21 -13z m1098 -355 c0 -7 6 -13 14
-13 11 0 15 -38 7 -69 -1 -2 -10 4 -21 14 -16 14 -20 15 -20 4 0 -8 6 -21 13
-28 10 -11 9 -13 -5 -8 -10 4 -18 2 -18 -3 0 -6 -4 -10 -10 -10 -5 0 -10 10
-10 23 -1 23 -21 57 -35 57 -4 0 -5 -16 -2 -35 7 -43 -8 -47 -17 -4 -9 48 -8
59 9 53 8 -4 15 -1 15 5 0 6 -6 11 -12 12 -7 0 -3 4 10 9 12 5 22 14 22 19 0
5 12 5 30 -2 17 -6 30 -17 30 -24z m82 15 c-7 -7 -12 -20 -12 -29 0 -9 -9 -19
-20 -22 -11 -3 -18 -2 -15 2 2 5 9 20 14 35 6 14 18 26 28 26 13 0 14 -3 5
-12z m-1352 -462 c0 -26 -6 -18 -14 19 -5 22 -4 26 4 15 5 -8 10 -24 10 -34z
m295 -69 c11 -8 14 -16 8 -20 -6 -4 -18 2 -28 13 -21 23 -8 27 20 7z m-41 -22
c3 -9 0 -15 -8 -15 -8 0 -16 7 -20 15 -3 9 0 15 8 15 8 0 16 -7 20 -15z
m-1444 -2 c0 -5 -4 -15 -10 -23 -11 -18 -25 -7 -17 15 6 15 27 21 27 8z m1380
-23 c0 -5 -2 -10 -4 -10 -3 0 -8 5 -11 10 -3 6 -1 10 4 10 6 0 11 -4 11 -10z
m-60 -40 c0 -14 -7 -20 -22 -20 -20 0 -21 1 -3 20 10 11 20 20 22 20 1 0 3 -9
3 -20z m72 -22 c-5 -20 -8 -21 -37 -8 -17 7 -17 9 -2 9 9 1 17 5 17 9 0 5 6 9
14 9 8 0 11 -8 8 -19z m-56 -85 c-11 -11 -19 6 -11 24 8 17 8 17 12 0 3 -10 2
-21 -1 -24z m-1226 -74 c0 -5 -4 -9 -10 -9 -5 0 -10 7 -10 16 0 8 5 12 10 9 6
-3 10 -10 10 -16z m-393 -161 c-3 -8 -6 -5 -6 6 -1 11 2 17 5 13 3 -3 4 -12 1
-19z m1853 -8 c0 -5 -4 -10 -10 -10 -5 0 -10 5 -10 10 0 6 5 10 10 10 6 0 10
-4 10 -10z m-9 -52 c8 -15 8 -18 0 -14 -6 4 -16 16 -22 28 -8 15 -8 18 0 14 6
-4 16 -16 22 -28z m-121 -38 c0 -5 -2 -10 -4 -10 -3 0 -8 5 -11 10 -3 6 -1 10
4 10 6 0 11 -4 11 -10z m-1680 -79 c0 -5 3 -18 6 -28 5 -16 4 -16 -10 1 -18
23 -20 36 -6 36 6 0 10 -4 10 -9z m-75 -71 c3 -5 1 -10 -4 -10 -6 0 -11 5 -11
10 0 6 2 10 4 10 3 0 8 -4 11 -10z m1830 -10 c3 -5 1 -10 -4 -10 -6 0 -11 5
-11 10 0 6 2 10 4 10 3 0 8 -4 11 -10z m-85 -71 c0 -6 -4 -7 -10 -4 -5 3 -10
11 -10 16 0 6 5 7 10 4 6 -3 10 -11 10 -16z m-1770 7 c0 -3 -4 -8 -10 -11 -5
-3 -10 -1 -10 4 0 6 5 11 10 11 6 0 10 -2 10 -4z m735 -26 c-3 -5 -12 -10 -18
-10 -7 0 -6 4 3 10 19 12 23 12 15 0z m1042 -22 c-3 -8 -6 -5 -6 6 -1 11 2 17
5 13 3 -3 4 -12 1 -19z m-1740 -10 c-3 -8 -6 -5 -6 6 -1 11 2 17 5 13 3 -3 4
-12 1 -19z m1622 -45 c-1 -33 -2 -35 -8 -13 -4 14 -6 31 -3 38 8 22 12 13 11
-25z m-1420 -21 c0 -24 -1 -25 -9 -7 -12 28 -12 47 0 40 6 -3 10 -18 9 -33z
m-109 13 c0 -8 -7 -15 -15 -15 -16 0 -20 12 -8 23 11 12 23 8 23 -8z m-110
-38 c0 -13 5 -28 12 -35 9 -9 9 -15 0 -24 -9 -9 -12 -7 -12 9 0 12 -4 24 -9
27 -16 10 -20 46 -5 46 8 0 14 -10 14 -23z m1637 -19 c-3 -8 -6 -5 -6 6 -1 11
2 17 5 13 3 -3 4 -12 1 -19z m-1507 -18 c0 -5 -4 -10 -9 -10 -6 0 -13 5 -16
10 -3 6 1 10 9 10 9 0 16 -4 16 -10z m27 -12 c-3 -8 -6 -5 -6 6 -1 11 2 17 5
13 3 -3 4 -12 1 -19z m-134 -76 c14 -18 4 -24 -16 -9 -12 8 -15 19 -10 37 6
22 8 23 11 5 2 -11 9 -26 15 -33z m1017 18 c0 -5 -4 -10 -10 -10 -5 0 -10 5
-10 10 0 6 5 10 10 10 6 0 10 -4 10 -10z m-847 -47 c-6 -15 -4 -16 9 -5 13 11
17 8 24 -15 4 -16 8 -35 9 -43 1 -8 5 -25 9 -37 5 -14 3 -23 -3 -23 -6 0 -11
4 -11 9 0 6 -11 22 -25 37 -14 15 -25 33 -25 40 0 7 -6 14 -12 17 -9 3 -7 10
7 21 25 20 26 20 18 -1z m-33 -34 c0 -5 -4 -9 -10 -9 -5 0 -10 7 -10 16 0 8 5
12 10 9 6 -3 10 -10 10 -16z m-54 -16 c-7 -7 -26 7 -26 19 0 6 6 6 15 -2 9 -7
13 -15 11 -17z m-66 -3 c0 -5 -2 -10 -4 -10 -3 0 -8 5 -11 10 -3 6 -1 10 4 10
6 0 11 -4 11 -10z m75 -30 c3 -5 2 -10 -4 -10 -5 0 -13 5 -16 10 -3 6 -2 10 4
10 5 0 13 -4 16 -10z m-308 -50 c1 -29 -2 -48 -8 -45 -11 7 -12 95 -1 95 4 0
8 -23 9 -50z m380 18 c-3 -7 -5 -2 -5 12 0 14 2 19 5 13 2 -7 2 -19 0 -25z
m-222 12 c3 -5 1 -10 -4 -10 -6 0 -11 5 -11 10 0 6 2 10 4 10 3 0 8 -4 11 -10z
m320 -10 c3 -5 1 -10 -4 -10 -6 0 -11 5 -11 10 0 6 2 10 4 10 3 0 8 -4 11 -10z
m1235 -4 c0 -9 -30 -14 -35 -6 -4 6 3 10 14 10 12 0 21 -2 21 -4z m-1570 -42
c0 -8 -4 -12 -10 -9 -5 3 -10 13 -10 21 0 8 5 12 10 9 6 -3 10 -13 10 -21z
m164 -35 c-6 -10 -36 0 -46 14 -3 6 -1 18 5 28 10 17 12 16 29 -8 9 -15 15
-30 12 -34z m-494 41 c0 -5 -5 -10 -11 -10 -5 0 -7 5 -4 10 3 6 8 10 11 10 2
0 4 -4 4 -10z m614 -26 c3 -8 2 -12 -4 -9 -6 3 -10 10 -10 16 0 14 7 11 14 -7z
m-46 -25 c18 -22 20 -29 8 -29 -8 0 -21 14 -30 30 -18 38 -8 38 22 -1z m77
-19 c14 0 27 -25 18 -34 -10 -9 -43 25 -42 43 0 10 2 12 6 4 2 -7 11 -13 18
-13z m50 10 c3 -5 -1 -10 -9 -10 -9 0 -16 5 -16 10 0 6 4 10 9 10 6 0 13 -4
16 -10z m35 0 c0 -5 -2 -10 -4 -10 -3 0 -8 5 -11 10 -3 6 -1 10 4 10 6 0 11
-4 11 -10z m-538 -32 c-9 -9 -12 -7 -12 12 0 19 3 21 12 12 9 -9 9 -15 0 -24z
m-112 1 c0 -11 -4 -17 -10 -14 -5 3 -10 13 -10 21 0 8 5 14 10 14 6 0 10 -9
10 -21z m380 -42 c0 -16 -3 -17 -15 -7 -8 7 -15 24 -15 39 1 25 1 25 15 7 8
-11 15 -29 15 -39z m155 3 c3 -5 -1 -10 -9 -10 -9 0 -16 5 -16 10 0 6 4 10 9
10 6 0 13 -4 16 -10z m-85 -52 c0 -13 -23 -5 -28 10 -2 7 2 10 12 6 9 -3 16
-11 16 -16z m73 0 c7 -23 1 -38 -14 -38 -5 0 -9 14 -9 30 0 35 15 40 23 8z
m-238 2 c3 -5 1 -10 -4 -10 -6 0 -11 5 -11 10 0 6 2 10 4 10 3 0 8 -4 11 -10z
m386 -40 c5 0 9 -8 9 -17 0 -15 -4 -13 -20 7 -11 14 -19 34 -19 45 0 16 3 14
11 -7 5 -16 14 -28 19 -28z m-513 7 c-7 -12 -11 -25 -10 -29 1 -5 -2 -8 -8 -8
-12 0 -12 0 1 38 6 18 15 29 20 26 5 -3 4 -15 -3 -27z m77 13 c3 -5 3 -15 -1
-21 -6 -11 -23 6 -24 24 0 10 18 9 25 -3z m-145 -10 c0 -5 -2 -10 -4 -10 -3 0
-8 5 -11 10 -3 6 -1 10 4 10 6 0 11 -4 11 -10z m220 -73 c0 -39 -15 -25 -25
23 -7 31 -6 33 9 21 9 -7 16 -27 16 -44z m70 49 c0 -11 -19 -15 -25 -6 -3 5 1
10 9 10 9 0 16 -2 16 -4z m110 -17 c15 -28 4 -38 -15 -13 -17 22 -19 34 -5 34
5 0 14 -9 20 -21z m255 11 c3 -6 -1 -7 -9 -4 -18 7 -21 14 -7 14 6 0 13 -4 16
-10z m-105 -36 c0 -8 -4 -14 -10 -14 -5 0 -10 -8 -10 -17 0 -15 -2 -16 -10 -3
-5 9 -5 19 2 27 7 9 7 13 -1 13 -7 0 -10 4 -6 10 8 13 35 1 35 -16z m-80 6 c0
-5 -7 -10 -15 -10 -8 0 -15 5 -15 10 0 6 7 10 15 10 8 0 15 -4 15 -10z m-780
-10 c0 -5 -4 -10 -10 -10 -5 0 -10 5 -10 10 0 6 5 10 10 10 6 0 10 -4 10 -10z
m394 -5 c-7 -17 -30 -20 -39 -6 -4 8 9 15 37 20 4 0 5 -6 2 -14z m229 -22 c-7
-18 -23 -5 -23 18 0 16 2 18 14 7 7 -7 11 -19 9 -25z m-463 17 c0 -5 -2 -10
-4 -10 -3 0 -8 5 -11 10 -3 6 -1 10 4 10 6 0 11 -4 11 -10z m-340 -18 c0 -10
5 -23 12 -30 9 -9 9 -12 0 -12 -12 0 -32 31 -32 49 0 6 5 11 10 11 6 0 10 -8
10 -18z m260 3 c0 -8 -4 -15 -10 -15 -5 0 -7 7 -4 15 4 8 8 15 10 15 2 0 4 -7
4 -15z m620 5 c0 -5 -4 -10 -10 -10 -5 0 -10 5 -10 10 0 6 5 10 10 10 6 0 10
-4 10 -10z m270 -41 c0 -7 -6 -4 -15 7 -19 25 -19 40 0 20 8 -8 15 -20 15 -27z
m1444 16 c-4 -8 -11 -15 -16 -15 -6 0 -5 6 2 15 7 8 14 15 16 15 2 0 1 -7 -2
-15z m-1391 -25 c-10 -10 -22 -14 -27 -9 -13 12 12 39 30 32 13 -5 12 -8 -3
-23z m-1053 4 c0 -8 -4 -12 -10 -9 -5 3 -10 10 -10 16 0 5 5 9 10 9 6 0 10 -7
10 -16z m770 -25 c0 -11 -4 -17 -10 -14 -5 3 -10 13 -10 21 0 8 5 14 10 14 6
0 10 -9 10 -21z m100 11 c0 -5 -4 -10 -10 -10 -5 0 -10 5 -10 10 0 6 5 10 10
10 6 0 10 -4 10 -10z m-1015 -20 c-3 -5 -10 -10 -16 -10 -5 0 -9 5 -9 10 0 6
7 10 16 10 8 0 12 -4 9 -10z m665 -10 c0 -5 -2 -10 -4 -10 -3 0 -8 5 -11 10
-3 6 -1 10 4 10 6 0 11 -4 11 -10z m305 0 c3 -5 1 -10 -4 -10 -6 0 -11 5 -11
10 0 6 2 10 4 10 3 0 8 -4 11 -10z m85 -20 c0 -5 -2 -10 -4 -10 -3 0 -8 5 -11
10 -3 6 -1 10 4 10 6 0 11 -4 11 -10z"/>
<path d="M3262 5143 c6 -7 14 -13 19 -13 5 0 9 6 9 13 0 7 -9 13 -19 13 -15 0
-17 -3 -9 -13z"/>
<path d="M2830 4701 c0 -6 4 -13 10 -16 6 -3 7 1 4 9 -7 18 -14 21 -14 7z"/>
<path d="M2798 4685 c5 -11 12 -27 15 -35 5 -13 6 -13 6 1 1 8 -6 24 -15 35
-15 19 -15 19 -6 -1z"/>
<path d="M2225 4300 c3 -5 8 -10 11 -10 2 0 4 5 4 10 0 6 -5 10 -11 10 -5 0
-7 -4 -4 -10z"/>
<path d="M2140 4275 c-13 -14 -21 -25 -18 -25 10 0 51 40 46 45 -2 3 -15 -6
-28 -20z"/>
<path d="M2615 4180 c3 -5 8 -10 11 -10 2 0 4 5 4 10 0 6 -5 10 -11 10 -5 0
-7 -4 -4 -10z"/>
<path d="M3869 3835 c-9 -8 2 -55 12 -55 10 0 11 17 0 43 -3 10 -9 15 -12 12z"/>
<path d="M3980 3820 c0 -5 5 -10 10 -10 6 0 10 5 10 10 0 6 -4 10 -10 10 -5 0
-10 -4 -10 -10z"/>
<path d="M3940 3359 c0 -11 5 -17 10 -14 6 3 10 13 10 21 0 8 -4 14 -10 14 -5
0 -10 -9 -10 -21z"/>
<path d="M2625 3170 c3 -5 0 -10 -7 -10 -9 0 -9 -3 2 -10 13 -8 12 -10 -3 -10
-10 0 -28 5 -39 11 -17 9 -20 9 -15 -4 4 -12 -4 -16 -39 -19 -24 -2 -44 0 -44
4 0 5 -9 8 -20 8 -25 0 -27 -20 -2 -21 9 0 1 -6 -18 -13 -19 -7 -39 -9 -44 -4
-6 4 -18 8 -28 8 -10 0 -18 4 -18 9 0 5 -9 7 -20 4 -10 -3 -19 -8 -18 -12 3
-24 -8 -28 -72 -28 -39 -1 -76 -5 -83 -10 -7 -5 -33 -17 -58 -26 -55 -21 -111
-76 -115 -114 -2 -18 0 -23 5 -14 5 7 20 15 34 16 14 2 36 13 49 24 12 12 34
24 48 28 14 3 49 17 79 31 52 24 59 25 185 18 72 -4 155 -8 184 -9 28 -1 52 2
52 6 0 5 23 7 50 5 41 -4 48 -3 39 8 -15 18 1 17 25 -1 24 -18 45 -20 28 -3
-22 22 -13 29 17 13 19 -9 32 -11 36 -5 8 13 -3 30 -18 30 -6 0 -37 18 -68 40
-59 41 -76 49 -63 28 4 -7 3 -8 -5 -4 -6 4 -9 11 -6 16 3 4 -2 11 -11 14 -22
8 -26 8 -19 -4z m-605 -210 c0 -5 -5 -10 -11 -10 -5 0 -7 5 -4 10 3 6 8 10 11
10 2 0 4 -4 4 -10z"/>
<path d="M2240 3125 c-7 -8 -8 -15 -2 -15 5 0 15 7 22 15 7 8 8 15 2 15 -5 0
-15 -7 -22 -15z"/>
<path d="M2525 2951 l-40 -7 35 -8 c19 -5 49 -16 65 -25 30 -16 30 -16 -60
-21 -77 -5 -101 -11 -165 -42 -87 -42 -161 -104 -135 -114 9 -4 25 2 39 15 12
11 26 21 30 21 4 0 28 14 52 32 38 27 47 30 54 18 6 -8 10 -20 10 -26 0 -6 9
-23 21 -38 16 -21 29 -26 64 -26 69 0 92 13 106 61 15 49 30 57 65 34 20 -13
24 -22 20 -40 -9 -34 17 -38 49 -9 l27 25 -23 26 c-16 17 -19 24 -9 21 23 -5
24 9 1 47 -15 26 -31 37 -72 49 -55 17 -68 17 -134 7z m-60 -100 c3 -5 1 -12
-5 -16 -5 -3 -10 1 -10 9 0 18 6 21 15 7z"/>
<path d="M2010 2910 c0 -5 5 -10 11 -10 5 0 7 5 4 10 -3 6 -8 10 -11 10 -2 0
-4 -4 -4 -10z"/>
<path d="M2231 2854 c-20 -25 -27 -44 -17 -44 8 0 48 61 43 66 -2 3 -14 -7
-26 -22z"/>
<path d="M2771 2771 c-10 -6 -9 -10 3 -14 8 -3 18 -2 21 3 8 13 -9 20 -24 11z"/>
<path d="M2675 2660 c-10 -11 -25 -20 -34 -21 -11 0 -12 -2 -3 -6 19 -7 72 17
72 33 0 20 -14 17 -35 -6z"/>
<path d="M2850 1962 c0 -33 33 -45 80 -31 36 11 39 14 26 27 -7 8 -35 17 -60
19 -42 5 -46 4 -46 -15z"/>
<path d="M1976 1935 c4 -8 8 -15 10 -15 2 0 4 7 4 15 0 8 -4 15 -10 15 -5 0
-7 -7 -4 -15z"/>
<path d="M2000 1890 c0 -5 5 -10 11 -10 5 0 7 5 4 10 -3 6 -8 10 -11 10 -2 0
-4 -4 -4 -10z"/>
<path d="M2010 1810 c0 -5 5 -10 10 -10 6 0 10 5 10 10 0 6 -4 10 -10 10 -5 0
-10 -4 -10 -10z"/>
<path d="M2042 1785 c-6 -14 -7 -25 -2 -25 9 0 25 39 18 46 -3 2 -10 -7 -16
-21z"/>
<path d="M2086 1780 c-9 -47 -8 -96 3 -84 13 14 22 87 12 102 -6 10 -10 4 -15
-18z"/>
<path d="M2117 1764 c-4 -4 -7 -21 -7 -38 l0 -31 15 29 c14 27 8 56 -8 40z"/>
<path d="M3068 1730 c-16 -17 -28 -39 -28 -50 0 -11 -5 -20 -11 -20 -8 0 -7
-5 2 -16 7 -9 13 -25 14 -36 3 -38 51 -51 77 -20 18 19 29 82 16 82 -5 0 -7 8
-3 19 3 10 -1 24 -10 31 -8 7 -15 19 -15 26 0 21 -12 17 -42 -16z"/>
<path d="M2201 1625 c1 -19 18 -51 18 -35 0 8 -4 22 -9 30 -5 8 -9 11 -9 5z"/>
<path d="M2210 1555 c1 -11 2 -29 1 -40 -2 -19 -2 -19 -15 -2 -13 17 -14 17
-20 0 -4 -10 -2 -19 3 -21 6 -2 11 -8 11 -13 0 -6 -4 -7 -10 -4 -5 3 -10 -1
-10 -9 0 -9 4 -16 9 -16 5 0 18 -3 28 -6 15 -6 16 -4 6 7 -17 17 -16 32 1 26
10 -4 13 5 11 40 -2 25 -7 48 -10 51 -4 4 -6 -2 -5 -13z"/>
<path d="M2506 1518 c-9 -12 -14 -24 -12 -26 9 -8 31 13 32 31 2 22 -2 22 -20
-5z"/>
<path d="M2545 1520 c-3 -5 -2 -10 4 -10 5 0 13 5 16 10 3 6 2 10 -4 10 -5 0
-13 -4 -16 -10z"/>
<path d="M2854 1471 c4 -5 -6 -18 -20 -28 l-26 -19 96 -1 c53 0 96 1 96 3 0 2
-20 15 -43 29 -42 24 -115 35 -103 16z"/>
<path d="M3062 1208 c-6 -6 -12 -30 -12 -53 0 -22 -7 -51 -16 -64 -18 -26 -30
-91 -17 -91 5 0 14 5 21 12 6 6 15 9 18 5 4 -3 -1 -13 -10 -22 -9 -9 -16 -21
-16 -28 0 -6 7 -2 16 9 14 18 15 16 9 -25 -5 -38 -4 -42 9 -32 12 10 16 8 21
-8 3 -12 3 -31 0 -43 -5 -18 -4 -20 4 -8 6 8 11 11 11 5 0 -5 7 -2 14 8 8 10
20 16 27 15 7 -2 15 10 19 27 3 17 11 29 18 28 7 -2 12 2 12 7 0 6 7 10 15 10
8 0 22 12 32 28 9 15 30 41 46 57 24 25 27 35 22 65 -4 19 -8 37 -10 39 -7 7
-25 -11 -25 -25 0 -8 -4 -14 -10 -14 -5 0 -10 -10 -10 -22 0 -20 -3 -19 -23
12 l-22 35 -6 -30 c-5 -23 -7 -25 -8 -8 0 12 -9 27 -18 32 -10 6 -12 11 -5 11
6 0 12 5 12 11 0 6 -9 8 -20 4 -16 -5 -20 -2 -20 19 0 20 -4 24 -22 21 -12 -3
-26 2 -32 11 -9 12 -14 12 -24 2z m233 -126 c-8 -9 -25 20 -18 31 3 5 10 2 15
-7 6 -10 7 -20 3 -24z m-235 -42 c0 -5 -4 -10 -10 -10 -5 0 -10 5 -10 10 0 6
5 10 10 10 6 0 10 -4 10 -10z m187 -5 c2 -6 -6 -11 -17 -11 -11 0 -20 6 -20
14 0 15 32 13 37 -3z m-140 -137 c-3 -7 -5 -2 -5 12 0 14 2 19 5 13 2 -7 2
-19 0 -25z"/>
<path d="M3031 1184 c0 -11 3 -14 6 -6 3 7 2 16 -1 19 -3 4 -6 -2 -5 -13z"/>
<path d="M3480 975 c0 -11 32 -34 48 -35 7 0 10 5 7 11 -4 6 -10 8 -13 5 -3
-3 -14 1 -24 11 -10 9 -18 13 -18 8z"/>
<path d="M3127 853 c-4 -3 -7 -11 -7 -17 0 -6 5 -5 12 2 6 6 9 14 7 17 -3 3
-9 2 -12 -2z"/>
<path d="M3111 808 c0 -9 -4 -25 -7 -35 -5 -14 -4 -15 5 -7 7 7 11 22 8 35 -2
13 -5 16 -6 7z"/>
<path d="M3153 795 c-9 -10 -9 -16 -2 -20 14 -9 22 0 17 18 -2 13 -5 13 -15 2z"/>
<path d="M3296 788 c-8 -31 -7 -38 2 -38 4 0 9 14 10 30 3 35 -3 39 -12 8z"/>
<path d="M2920 759 c0 -5 5 -7 10 -4 6 3 10 8 10 11 0 2 -4 4 -10 4 -5 0 -10
-5 -10 -11z"/>
<path d="M1482 2788 c-17 -17 -15 -66 7 -150 11 -40 22 -94 26 -120 3 -26 10
-50 15 -53 14 -9 22 34 23 124 1 45 5 80 8 78 15 -5 47 36 51 64 4 23 0 34
-16 44 -32 20 -99 28 -114 13z"/>
<path d="M3560 1691 c0 -5 7 -12 16 -15 14 -5 15 -4 4 9 -14 17 -20 19 -20 6z"/>
<path d="M1960 556 c0 -2 7 -9 15 -16 12 -10 15 -10 15 4 0 9 -7 16 -15 16 -8
0 -15 -2 -15 -4z"/>
<path d="M3127 503 c-4 -3 -7 -11 -7 -17 0 -6 5 -5 12 2 6 6 9 14 7 17 -3 3
-9 2 -12 -2z"/>
<path d="M3605 270 c-3 -5 -2 -10 4 -10 5 0 13 5 16 10 3 6 2 10 -4 10 -5 0
-13 -4 -16 -10z"/>
<path d="M3448 148 c9 -9 15 -9 24 0 9 9 7 12 -12 12 -19 0 -21 -3 -12 -12z"/>
<path d="M3387 85 c-20 -19 -41 -35 -47 -35 -5 0 -10 -4 -10 -10 0 -5 3 -10 6
-10 13 0 74 42 74 51 0 5 12 9 28 10 16 0 21 3 12 6 -8 3 -18 10 -21 15 -3 5
-22 -7 -42 -27z"/>
<path d="M3393 36 c-23 -11 -32 -36 -12 -36 20 0 49 21 49 35 0 17 -6 17 -37
1z"/>
<path d="M3328 3 c7 -3 16 -2 19 1 4 3 -2 6 -13 5 -11 0 -14 -3 -6 -6z"/>
</g>
</svg>
